HIERARCHY
ROOT hip
{
  OFFSET 0 90.174 2.4664
  CHANNELS 6 Xposition Yposition Zposition Zrotation Xrotation Yrotation
  JOINT abdomen
  {
    OFFSET 0 -1.186 -1.5018
    CHANNELS 6 Xposition Yposition Zposition Zrotation Xrotation Yrotation
    JOINT abdomen2
    {
      OFFSET 0 9.964 0.2134
      CHANNELS 6 Xposition Yposition Zposition Zrotation Xrotation Yrotation
      JOINT chest
      {
        OFFSET 0 13.134 -3.2573
        CHANNELS 6 Xposition Yposition Zposition Zrotation Xrotation Yrotation
        JOINT neck
        {
          OFFSET 0 20.686 -1.6905
          CHANNELS 6 Xposition Yposition Zposition Zrotation Xrotation Yrotation
          JOINT head
          {
            OFFSET 0 7.238 -0.1237
            CHANNELS 6 Xposition Yposition Zposition Zrotation Xrotation Yrotation
            End Site
            {
              OFFSET 0 0 0
            }
          }
        }
        JOINT lCollar
        {
          OFFSET 1.7069 20.075 5.0056
          CHANNELS 6 Xposition Yposition Zposition Zrotation Xrotation Yrotation
          JOINT lShldr
          {
            OFFSET 13.6458 -0.047 -4.849
            CHANNELS 6 Xposition Yposition Zposition Zrotation Xrotation Yrotation
            JOINT lForeArm
            {
              OFFSET 28.3255 -0.9759 2.2888
              CHANNELS 6 Xposition Yposition Zposition Zrotation Xrotation Yrotation
              JOINT lHand
              {
                OFFSET 22.1583 -0.53 10.8316
                CHANNELS 6 Xposition Yposition Zposition Zrotation Xrotation Yrotation
                JOINT lThumb1
                {
                  OFFSET 0.786 0.112 2.5817
                  CHANNELS 6 Xposition Yposition Zposition Zrotation Xrotation Yrotation
                  JOINT lThumb2
                  {
                    OFFSET 0.3601 -0.878 4.2331
                    CHANNELS 6 Xposition Yposition Zposition Zrotation Xrotation Yrotation
                    JOINT lThumb2_End
                    {
                      OFFSET 1.8127 -1.216 2.2227
                      CHANNELS 6 Xposition Yposition Zposition Zrotation Xrotation Yrotation
                      End Site
                      {
                        OFFSET 0.0181 -0.0122 0.0222
                      }
                    }
                  }
                }
                JOINT lCarpal1
                {
                  OFFSET 0.9571 1.114 1.7695
                  CHANNELS 6 Xposition Yposition Zposition Zrotation Xrotation Yrotation
                  JOINT lIndex1
                  {
                    OFFSET 4.1246 0.487 4.1451
                    CHANNELS 6 Xposition Yposition Zposition Zrotation Xrotation Yrotation
                    JOINT lIndex2
                    {
                      OFFSET 3.4052 -1.454 2.7682
                      CHANNELS 6 Xposition Yposition Zposition Zrotation Xrotation Yrotation
                      JOINT lIndex2_End
                      {
                        OFFSET 1.4531 -1.795 1.2713
                        CHANNELS 6 Xposition Yposition Zposition Zrotation Xrotation Yrotation
                        End Site
                        {
                          OFFSET 0.0145 -0.0179 0.0127
                        }
                      }
                    }
                  }
                  JOINT lMid1
                  {
                    OFFSET 5.6954 0.21 2.1184
                    CHANNELS 6 Xposition Yposition Zposition Zrotation Xrotation Yrotation
                    JOINT lMid2
                    {
                      OFFSET 3.9766 -1.54 2.3863
                      CHANNELS 6 Xposition Yposition Zposition Zrotation Xrotation Yrotation
                      JOINT lMid2_End
                      {
                        OFFSET 1.4042 -1.926 1.125
                        CHANNELS 6 Xposition Yposition Zposition Zrotation Xrotation Yrotation
                        End Site
                        {
                          OFFSET 0.014 -0.0193 0.0113
                        }
                      }
                    }
                  }
                }
                JOINT lCarpal2
                {
                  OFFSET 2.0956 0.66 -0.3894
                  CHANNELS 6 Xposition Yposition Zposition Zrotation Xrotation Yrotation
                  JOINT lRing1
                  {
                    OFFSET 5.0395 -0.09 2.4971
                    CHANNELS 6 Xposition Yposition Zposition Zrotation Xrotation Yrotation
                    JOINT lRing2
                    {
                      OFFSET 3.7921 -1.552 1.4806
                      CHANNELS 6 Xposition Yposition Zposition Zrotation Xrotation Yrotation
                      JOINT lRing2_End
                      {
                        OFFSET 1.4655 -1.808 0.9609
                        CHANNELS 6 Xposition Yposition Zposition Zrotation Xrotation Yrotation
                        End Site
                        {
                          OFFSET 0.0147 -0.0181 0.0096
                        }
                      }
                    }
                  }
                  JOINT lPinky1
                  {
                    OFFSET 4.9141 -1.269 0.3591
                    CHANNELS 6 Xposition Yposition Zposition Zrotation Xrotation Yrotation
                    JOINT lPinky2
                    {
                      OFFSET 3.1477 -1.685 0.8462
                      CHANNELS 6 Xposition Yposition Zposition Zrotation Xrotation Yrotation
                      JOINT lPinky2_End
                      {
                        OFFSET 0.8055 -1.585 0.7955
                        CHANNELS 6 Xposition Yposition Zposition Zrotation Xrotation Yrotation
                        End Site
                        {
                          OFFSET 0.0081 -0.0158 0.008
                        }
                      }
                    }
                  }
                }
              }
            }
          }
        }
        JOINT rCollar
        {
          OFFSET -1.7069 20.075 5.0056
          CHANNELS 6 Xposition Yposition Zposition Zrotation Xrotation Yrotation
          JOINT rShldr
          {
            OFFSET -13.6458 -0.047 -4.849
            CHANNELS 6 Xposition Yposition Zposition Zrotation Xrotation Yrotation
            JOINT rForeArm
            {
              OFFSET -28.3255 -0.9759 2.2888
              CHANNELS 6 Xposition Yposition Zposition Zrotation Xrotation Yrotation
              JOINT rHand
              {
                OFFSET -22.1583 -0.53 10.8316
                CHANNELS 6 Xposition Yposition Zposition Zrotation Xrotation Yrotation
                JOINT rThumb1
                {
                  OFFSET -0.786 0.112 2.5817
                  CHANNELS 6 Xposition Yposition Zposition Zrotation Xrotation Yrotation
                  JOINT rThumb2
                  {
                    OFFSET -0.3601 -0.878 4.2331
                    CHANNELS 6 Xposition Yposition Zposition Zrotation Xrotation Yrotation
                    JOINT rThumb2_End
                    {
                      OFFSET -1.8127 -1.216 2.2227
                      CHANNELS 6 Xposition Yposition Zposition Zrotation Xrotation Yrotation
                      End Site
                      {
                        OFFSET -0.0181 -0.0122 0.0222
                      }
                    }
                  }
                }
                JOINT rCarpal1
                {
                  OFFSET -0.9571 1.114 1.7695
                  CHANNELS 6 Xposition Yposition Zposition Zrotation Xrotation Yrotation
                  JOINT rIndex1
                  {
                    OFFSET -4.1246 0.487 4.1451
                    CHANNELS 6 Xposition Yposition Zposition Zrotation Xrotation Yrotation
                    JOINT rIndex2
                    {
                      OFFSET -3.4052 -1.454 2.7682
                      CHANNELS 6 Xposition Yposition Zposition Zrotation Xrotation Yrotation
                      JOINT rIndex2_End
                      {
                        OFFSET -1.4531 -1.795 1.2713
                        CHANNELS 6 Xposition Yposition Zposition Zrotation Xrotation Yrotation
                        End Site
                        {
                          OFFSET -0.0145 -0.018 0.0127
                        }
                      }
                    }
                  }
                  JOINT rMid1
                  {
                    OFFSET -5.6954 0.21 2.1184
                    CHANNELS 6 Xposition Yposition Zposition Zrotation Xrotation Yrotation
                    JOINT rMid2
                    {
                      OFFSET -3.9766 -1.54 2.3863
                      CHANNELS 6 Xposition Yposition Zposition Zrotation Xrotation Yrotation
                      JOINT rMid2_End
                      {
                        OFFSET -1.4042 -1.926 1.125
                        CHANNELS 6 Xposition Yposition Zposition Zrotation Xrotation Yrotation
                        End Site
                        {
                          OFFSET -0.014 -0.0193 0.0113
                        }
                      }
                    }
                  }
                }
                JOINT rCarpal2
                {
                  OFFSET -2.0956 0.66 -0.3894
                  CHANNELS 6 Xposition Yposition Zposition Zrotation Xrotation Yrotation
                  JOINT rRing1
                  {
                    OFFSET -5.0395 -0.09 2.4971
                    CHANNELS 6 Xposition Yposition Zposition Zrotation Xrotation Yrotation
                    JOINT rRing2
                    {
                      OFFSET -3.7921 -1.552 1.4806
                      CHANNELS 6 Xposition Yposition Zposition Zrotation Xrotation Yrotation
                      JOINT rRing2_End
                      {
                        OFFSET -1.4655 -1.808 0.9609
                        CHANNELS 6 Xposition Yposition Zposition Zrotation Xrotation Yrotation
                        End Site
                        {
                          OFFSET -0.0147 -0.0181 0.0096
                        }
                      }
                    }
                  }
                  JOINT rPinky1
                  {
                    OFFSET -4.9141 -1.269 0.3592
                    CHANNELS 6 Xposition Yposition Zposition Zrotation Xrotation Yrotation
                    JOINT rPinky2
                    {
                      OFFSET -3.1477 -1.685 0.8462
                      CHANNELS 6 Xposition Yposition Zposition Zrotation Xrotation Yrotation
                      JOINT rPinky2_End
                      {
                        OFFSET -0.8055 -1.585 0.7955
                        CHANNELS 6 Xposition Yposition Zposition Zrotation Xrotation Yrotation
                        End Site
                        {
                          OFFSET -0.0081 -0.0158 0.008
                        }
                      }
                    }
                  }
                }
              }
            }
          }
        }
      }
    }
  }
  JOINT lThigh
  {
    OFFSET 8.367 -8.2066 0.5982
    CHANNELS 6 Xposition Yposition Zposition Zrotation Xrotation Yrotation
    JOINT lShin
    {
      OFFSET 2.1923 -43.463 -0.4932
      CHANNELS 6 Xposition Yposition Zposition Zrotation Xrotation Yrotation
      JOINT lFoot
      {
        OFFSET 0.7333 -45.8593 -2.6451
        CHANNELS 6 Xposition Yposition Zposition Zrotation Xrotation Yrotation
        End Site
        {
          OFFSET 2.6618 -4.2699 12.3931
        }
      }
    }
  }
  JOINT rThigh
  {
    OFFSET -8.367 -8.2066 0.5982
    CHANNELS 6 Xposition Yposition Zposition Zrotation Xrotation Yrotation
    JOINT rShin
    {
      OFFSET -2.1923 -43.463 -0.4931
      CHANNELS 6 Xposition Yposition Zposition Zrotation Xrotation Yrotation
      JOINT rFoot
      {
        OFFSET -0.7333 -45.8593 -2.6451
        CHANNELS 6 Xposition Yposition Zposition Zrotation Xrotation Yrotation
        End Site
        {
          OFFSET -2.6618 -4.2699 12.3931
        }
      }
    }
  }
}
MOTION
Frames:	4
Frame Time:	0.0333333
-3.73245 6.07176 2.50211 90 -3.97569e-016 7.00164 0 -1.186 -1.5018 0.181402 6.43726 -0.184414 8.88178e-016 9.964 0.2134 0.387497 12.8739 -0.393238 8.88178e-016 13.134 -3.2573 0.387509 12.8739 -0.393238 0 20.686 -1.6905 -9.61924 22.5083 3.72772 -4.44089e-016 7.238 -0.1237 -25.1819 9.06739 5.22132 1.7069 20.075 5.0056 -20.8328 -0.147566 -3.1897 13.6458 -0.047 -4.849 -16.5077 1.8683 -42.3044 28.3255 -0.9759 2.2888 -46.3939 29.3009 -14.8004 22.1583 -0.53 10.8316 11.529 -1.97787 13.767 0.786 0.112 2.5817 -4.41391e-032 6.36111e-015 3.97569e-016 0.3601 -0.878 4.2331 7.95139e-016 0 3.97569e-016 1.8127 -1.216 2.2227 1.59028e-015 0 -0 0.9571 1.114 1.7695 -8.82781e-032 6.36111e-015 7.95139e-016 4.1246 0.487 4.1451 1.59028e-015 0 5.96354e-015 3.4052 -1.454 2.7682 7.95139e-016 3.18055e-015 -3.97569e-016 1.4531 -1.795 1.2713 -1.59028e-015 -3.18055e-015 -3.97569e-016 5.6954 0.21 2.1184 1.59028e-015 0 5.96354e-015 3.9766 -1.54 2.3863 7.95139e-016 3.18055e-015 -3.97569e-016 1.4042 -1.926 1.125 -1.59028e-015 -3.18055e-015 -3.97569e-016 2.0956 0.66 -0.3894 -8.82781e-032 6.36111e-015 7.95139e-016 5.0395 -0.09 2.4971 1.59028e-015 0 5.96354e-015 3.7921 -1.552 1.4806 7.95139e-016 3.18055e-015 -3.97569e-016 1.4655 -1.808 0.9609 -1.59028e-015 -3.18055e-015 -3.97569e-016 4.9141 -1.269 0.3591 1.59028e-015 0 5.96354e-015 3.1477 -1.685 0.8462 7.95139e-016 3.18055e-015 -3.97569e-016 0.8055 -1.585 0.7955 -1.59028e-015 -3.18055e-015 -3.97569e-016 -1.7069 20.075 5.0056 -10.108 16.1496 -10.1963 -13.6458 -0.047 -4.849 88.5705 -3.76019 -35.1749 -28.3255 -0.9759 2.2888 -15.5552 -6.75473 95.3396 -22.1583 -0.53 10.8316 5.23224 -18.0425 21.4158 -0.786 0.112 2.5817 1.2921e-015 4.96962e-016 -9.54166e-015 -0.3601 -0.878 4.2331 -1.60295e-006 5.17785e-007 -9.70043e-008 -1.8127 -1.216 2.2227 1.60295e-006 -5.17785e-007 9.70043e-008 -0.9571 1.114 1.7695 1.2921e-015 9.93923e-016 -9.54166e-015 -4.1246 0.487 4.1451 -1.39149e-015 5.96354e-016 -6.36111e-015 -3.4052 -1.454 2.7682 -1.60295e-006 5.17785e-007 -9.70043e-008 -1.4531 -1.795 1.2713 1.60295e-006 -5.17785e-007 9.70044e-008 -5.6954 0.21 2.1184 -1.39149e-015 5.96354e-016 -6.36111e-015 -3.9766 -1.54 2.3863 -1.60295e-006 5.17785e-007 -9.70043e-008 -1.4042 -1.926 1.125 1.60295e-006 -5.17785e-007 9.70044e-008 -2.0956 0.66 -0.3894 1.2921e-015 9.93923e-016 -9.54166e-015 -5.0395 -0.09 2.4971 -1.39149e-015 5.96354e-016 -6.36111e-015 -3.7921 -1.552 1.4806 -1.60295e-006 5.17785e-007 -9.70043e-008 -1.4655 -1.808 0.9609 1.60295e-006 -5.17785e-007 9.70044e-008 -4.9141 -1.269 0.3592 -1.39149e-015 5.96354e-016 -6.36111e-015 -3.1477 -1.685 0.8462 -1.60295e-006 5.17785e-007 -9.70043e-008 -0.8055 -1.585 0.7955 1.60295e-006 -5.17785e-007 9.70044e-008 8.367 -8.2066 0.5982 56.4114 -52.5204 88.3344 2.1923 -43.463 -0.4932 -136.663 61.3981 141.257 0.7333 -45.8593 -2.6451 4.44367 20.804 -3.63927 -8.367 -8.2066 0.5982 -41.2458 -59.9957 -49.1156 -2.1923 -43.463 -0.4931 14.0931 81.1392 -15.0259 -0.7333 -45.8593 -2.6451 -7.12836 12.7158 -1.50411 
-3.95803 6.09336 2.40877 90 -3.97569e-016 7.00164 8.88178e-016 -1.186 -1.5018 0.181715 6.38812 -0.183734 0 9.964 0.2134 0.387723 12.7756 -0.391657 0 13.134 -3.2573 0.387772 12.7756 -0.391664 0 20.686 -1.6905 -9.44001 22.2669 3.63957 2.22045e-015 7.238 -0.1237 -24.9823 9.08362 5.17342 1.7069 20.075 5.0056 -21.5087 0.0412979 -4.04677 13.6458 -0.047 -4.849 -16.4542 1.92579 -41.925 28.3255 -0.9759 2.2888 -45.0449 28.2954 -14.3949 22.1583 -0.53 10.8316 10.5853 -1.85406 13.0365 0.786 0.112 2.5817 7.95139e-016 3.18055e-015 3.97569e-016 0.3601 -0.878 4.2331 0 9.54166e-015 -0 1.8127 -1.216 2.2227 0 0 -0 0.9571 1.114 1.7695 7.95139e-016 3.18055e-015 -0 4.1246 0.487 4.1451 -1.05934e-030 9.54166e-015 6.36111e-015 3.4052 -1.454 2.7682 7.95139e-016 0 -3.97569e-016 1.4531 -1.795 1.2713 7.95139e-016 0 -3.97569e-016 5.6954 0.21 2.1184 -1.05934e-030 9.54166e-015 6.36111e-015 3.9766 -1.54 2.3863 7.95139e-016 0 -3.97569e-016 1.4042 -1.926 1.125 7.95139e-016 0 -3.97569e-016 2.0956 0.66 -0.3894 7.95139e-016 3.18055e-015 -0 5.0395 -0.09 2.4971 -1.05934e-030 9.54166e-015 6.36111e-015 3.7921 -1.552 1.4806 7.95139e-016 0 -3.97569e-016 1.4655 -1.808 0.9609 7.95139e-016 0 -3.97569e-016 4.9141 -1.269 0.3591 -1.05934e-030 9.54166e-015 6.36111e-015 3.1477 -1.685 0.8462 7.95139e-016 0 -3.97569e-016 0.8055 -1.585 0.7955 7.95139e-016 0 -3.97569e-016 -1.7069 20.075 5.0056 -9.63462 15.5346 -9.99566 -13.6458 -0.047 -4.849 88.1582 -3.6162 -34.8962 -28.3255 -0.9759 2.2888 -15.5162 -6.86343 94.9185 -22.1583 -0.53 10.8316 4.98391 -17.9317 20.6574 -0.786 0.112 2.5817 -1.6032e-006 5.17293e-007 -9.73532e-008 -0.3601 -0.878 4.2331 3.08116e-015 -4.96962e-016 -0 -1.8127 -1.216 2.2227 -1.86184e-006 -2.84305e-007 -2.28125e-007 -0.9571 1.114 1.7695 -3.67752e-015 -2.28602e-015 3.18055e-015 -4.1246 0.487 4.1451 -1.6032e-006 5.17293e-007 -9.73532e-008 -3.4052 -1.454 2.7682 5.56597e-015 -6.95746e-016 -6.36111e-015 -1.4531 -1.795 1.2713 -1.86184e-006 -2.84305e-007 -2.28125e-007 -5.6954 0.21 2.1184 -1.6032e-006 5.17293e-007 -9.73532e-008 -3.9766 -1.54 2.3863 5.56597e-015 -6.95746e-016 -6.36111e-015 -1.4042 -1.926 1.125 -1.86184e-006 -2.84305e-007 -2.28125e-007 -2.0956 0.66 -0.3894 -3.67752e-015 -2.28602e-015 3.18055e-015 -5.0395 -0.09 2.4971 -1.6032e-006 5.17293e-007 -9.73532e-008 -3.7921 -1.552 1.4806 5.56597e-015 -6.95746e-016 -6.36111e-015 -1.4655 -1.808 0.9609 -1.86184e-006 -2.84305e-007 -2.28125e-007 -4.9141 -1.269 0.3592 -1.6032e-006 5.17293e-007 -9.73532e-008 -3.1477 -1.685 0.8462 5.56597e-015 -6.95746e-016 -6.36111e-015 -0.8055 -1.585 0.7955 -1.86184e-006 -2.84305e-007 -2.28125e-007 8.367 -8.2066 0.5982 56.0393 -52.4938 87.9482 2.1923 -43.463 -0.4932 -136.037 61.6215 140.692 0.7333 -45.8593 -2.6451 4.49492 20.9705 -3.76679 -8.367 -8.2066 0.5982 -40.8959 -59.8069 -48.7707 -2.1923 -43.463 -0.4931 13.2489 80.6661 -15.3297 -0.7333 -45.8593 -2.6451 -7.33707 12.7874 -0.286919 
-4.16166 6.11284 2.32452 90 -3.97569e-016 7.00164 -8.88178e-016 -1.186 -1.5018 0.181915 6.34376 -0.183096 -8.88178e-016 9.964 0.2134 0.387991 12.6869 -0.390233 -8.88178e-016 13.134 -3.2573 0.387982 12.6869 -0.390233 0 20.686 -1.6905 -9.27894 22.0495 3.56103 8.88178e-016 7.238 -0.1237 -24.8031 9.09802 5.13037 1.7069 20.075 5.0056 -22.1176 0.22155 -4.81976 13.6458 -0.047 -4.849 -16.4062 1.97802 -41.5823 28.3255 -0.9759 2.2888 -43.8302 27.3986 -13.9997 22.1583 -0.53 10.8316 9.73361 -1.73099 12.3773 0.786 0.112 2.5817 1.59028e-015 -3.18055e-015 -0 0.3601 -0.878 4.2331 1.59028e-015 0 7.95139e-016 1.8127 -1.216 2.2227 1.59028e-015 -3.18055e-015 3.97569e-016 0.9571 1.114 1.7695 2.38542e-015 -3.18055e-015 -7.95139e-016 4.1246 0.487 4.1451 2.38542e-015 3.18055e-015 5.96354e-015 3.4052 -1.454 2.7682 7.95139e-016 -3.18055e-015 7.95139e-016 1.4531 -1.795 1.2713 -0 0 3.97569e-016 5.6954 0.21 2.1184 2.38542e-015 3.18055e-015 5.96354e-015 3.9766 -1.54 2.3863 7.95139e-016 -3.18055e-015 7.95139e-016 1.4042 -1.926 1.125 -0 0 3.97569e-016 2.0956 0.66 -0.3894 2.38542e-015 -3.18055e-015 -7.95139e-016 5.0395 -0.09 2.4971 2.38542e-015 3.18055e-015 5.96354e-015 3.7921 -1.552 1.4806 7.95139e-016 -3.18055e-015 7.95139e-016 1.4655 -1.808 0.9609 -0 0 3.97569e-016 4.9141 -1.269 0.3591 2.38542e-015 3.18055e-015 5.96354e-015 3.1477 -1.685 0.8462 7.95139e-016 -3.18055e-015 7.95139e-016 0.8055 -1.585 0.7955 -0 0 3.97569e-016 -1.7069 20.075 5.0056 -9.20634 14.9804 -9.80979 -13.6458 -0.047 -4.849 87.7854 -3.48812 -34.6435 -28.3255 -0.9759 2.2888 -15.4816 -6.96224 94.5383 -22.1583 -0.53 10.8316 4.76089 -17.8292 19.973 -0.786 0.112 2.5817 -3.27995e-015 1.09332e-015 3.18055e-015 -0.3601 -0.878 4.2331 -1.99107e-006 -6.85637e-007 -2.93401e-007 -1.8127 -1.216 2.2227 2.18663e-015 3.08116e-015 -6.36111e-015 -0.9571 1.114 1.7695 -3.27995e-015 -5.96354e-016 3.18055e-015 -4.1246 0.487 4.1451 -3.18055e-015 1.2921e-015 9.54166e-015 -3.4052 -1.454 2.7682 -1.99107e-006 -6.85637e-007 -2.93401e-007 -1.4531 -1.795 1.2713 8.94531e-016 2.78299e-015 -0 -5.6954 0.21 2.1184 -3.18055e-015 1.2921e-015 9.54166e-015 -3.9766 -1.54 2.3863 -1.99107e-006 -6.85637e-007 -2.93401e-007 -1.4042 -1.926 1.125 8.94531e-016 2.78299e-015 -0 -2.0956 0.66 -0.3894 -3.27995e-015 -5.96354e-016 3.18055e-015 -5.0395 -0.09 2.4971 -3.18055e-015 1.2921e-015 9.54166e-015 -3.7921 -1.552 1.4806 -1.99107e-006 -6.85637e-007 -2.93401e-007 -1.4655 -1.808 0.9609 8.94531e-016 2.78299e-015 -0 -4.9141 -1.269 0.3592 -3.18055e-015 1.2921e-015 9.54166e-015 -3.1477 -1.685 0.8462 -1.99107e-006 -6.85637e-007 -2.93401e-007 -0.8055 -1.585 0.7955 8.94531e-016 2.78299e-015 -0 8.367 -8.2066 0.5982 55.711 -52.4652 87.6059 2.1923 -43.463 -0.4932 -135.473 61.8179 140.179 0.7333 -45.8593 -2.6451 4.54164 21.1211 -3.88212 -8.367 -8.2066 0.5982 -40.5836 -59.6357 -48.4631 -2.1923 -43.463 -0.4931 12.9217 80.2386 -14.9984 -0.7333 -45.8593 -2.6451 -7.35424 12.9661 -0.243266 
-4.36531 6.13233 2.24028 90 -3.97569e-016 7.00164 8.88178e-016 -1.186 -1.5018 0.182142 6.29934 -0.182485 -8.88178e-016 9.964 0.2134 0.388183 12.5981 -0.388797 0 13.134 -3.2573 0.388186 12.5981 -0.3888 0 20.686 -1.6905 -9.1185 21.8323 3.48331 1.77636e-015 7.238 -0.1237 -24.6238 9.11232 5.08728 1.7069 20.075 5.0056 -22.7248 0.410277 -5.59175 13.6458 -0.047 -4.849 -16.3585 2.03055 -41.2397 28.3255 -0.9759 2.2888 -42.6174 26.5087 -13.5861 22.1583 -0.53 10.8316 8.88228 -1.5979 11.7192 0.786 0.112 2.5817 4.41391e-032 -6.36111e-015 3.97569e-016 0.3601 -0.878 4.2331 7.95139e-016 -6.36111e-015 3.97569e-016 1.8127 -1.216 2.2227 2.20695e-032 -3.18055e-015 3.97569e-016 0.9571 1.114 1.7695 4.41391e-032 -6.36111e-015 3.97569e-016 4.1246 0.487 4.1451 7.95139e-016 -6.36111e-015 7.15625e-015 3.4052 -1.454 2.7682 1.59028e-015 -3.18055e-015 3.97569e-016 1.4531 -1.795 1.2713 7.95139e-016 -3.18055e-015 7.95139e-016 5.6954 0.21 2.1184 7.95139e-016 -6.36111e-015 7.15625e-015 3.9766 -1.54 2.3863 1.59028e-015 -3.18055e-015 3.97569e-016 1.4042 -1.926 1.125 7.95139e-016 -3.18055e-015 7.95139e-016 2.0956 0.66 -0.3894 4.41391e-032 -6.36111e-015 3.97569e-016 5.0395 -0.09 2.4971 7.95139e-016 -6.36111e-015 7.15625e-015 3.7921 -1.552 1.4806 1.59028e-015 -3.18055e-015 3.97569e-016 1.4655 -1.808 0.9609 7.95139e-016 -3.18055e-015 7.95139e-016 4.9141 -1.269 0.3591 7.95139e-016 -6.36111e-015 7.15625e-015 3.1477 -1.685 0.8462 1.59028e-015 -3.18055e-015 3.97569e-016 0.8055 -1.585 0.7955 7.95139e-016 -3.18055e-015 7.95139e-016 -1.7069 20.075 5.0056 -8.77697 14.4273 -9.61995 -13.6458 -0.047 -4.849 87.4119 -3.36164 -34.39 -28.3255 -0.9759 2.2888 -15.4477 -7.06129 94.1579 -22.1583 -0.53 10.8316 4.53918 -17.7241 19.2891 -0.786 0.112 2.5817 9.93923e-017 6.95746e-016 -0 -0.3601 -0.878 4.2331 -2.98177e-015 -4.37326e-015 -6.36111e-015 -1.8127 -1.216 2.2227 -1.86185e-006 -2.85206e-007 -2.28194e-007 -0.9571 1.114 1.7695 3.27995e-015 1.49089e-015 -0 -4.1246 0.487 4.1451 -1.59028e-015 -4.96962e-015 -3.18055e-015 -3.4052 -1.454 2.7682 -5.06901e-015 -9.93923e-017 -9.54166e-015 -1.4531 -1.795 1.2713 -1.86185e-006 -2.85206e-007 -2.28194e-007 -5.6954 0.21 2.1184 -1.59028e-015 -4.96962e-015 -3.18055e-015 -3.9766 -1.54 2.3863 -5.06901e-015 -9.93923e-017 -9.54166e-015 -1.4042 -1.926 1.125 -1.86185e-006 -2.85206e-007 -2.28194e-007 -2.0956 0.66 -0.3894 3.27995e-015 1.49089e-015 -0 -5.0395 -0.09 2.4971 -1.59028e-015 -4.96962e-015 -3.18055e-015 -3.7921 -1.552 1.4806 -5.06901e-015 -9.93923e-017 -9.54166e-015 -1.4655 -1.808 0.9609 -1.86185e-006 -2.85206e-007 -2.28194e-007 -4.9141 -1.269 0.3592 -1.59028e-015 -4.96962e-015 -3.18055e-015 -3.1477 -1.685 0.8462 -5.06901e-015 -9.93923e-017 -9.54166e-015 -0.8055 -1.585 0.7955 -1.86185e-006 -2.85206e-007 -2.28194e-007 8.367 -8.2066 0.5982 55.3797 -52.4375 87.2617 2.1923 -43.463 -0.4932 -134.896 62.0139 139.655 0.7333 -45.8593 -2.6451 4.58884 21.2721 -3.99756 -8.367 -8.2066 0.5982 -40.2746 -59.4637 -48.159 -2.1923 -43.463 -0.4931 12.6213 79.8106 -14.6938 -0.7333 -45.8593 -2.6451 -7.37154 13.145 -0.199527 
